{
    "accessors": {
        "accessor_112": {
            "bufferView": "bufferView_133",
            "byteOffset": 0,
            "byteStride": 0,
            "componentType": 5123,
            "count": 84,
            "type": "SCALAR"
        },
        "accessor_115": {
            "bufferView": "bufferView_133",
            "byteOffset": 168,
            "byteStride": 0,
            "componentType": 5123,
            "count": 432,
            "type": "SCALAR"
        },
        "accessor_118": {
            "bufferView": "bufferView_133",
            "byteOffset": 1032,
            "byteStride": 0,
            "componentType": 5123,
            "count": 360,
            "type": "SCALAR"
        },
        "accessor_121": {
            "bufferView": "bufferView_133",
            "byteOffset": 1752,
            "byteStride": 0,
            "componentType": 5123,
            "count": 150,
            "type": "SCALAR"
        },
        "accessor_123": {
            "bufferView": "bufferView_134",
            "byteOffset": 0,
            "byteStride": 12,
            "componentType": 5126,
            "count": 868,
            "max": [
                0.92388,
                0.92388,
                1.84007
            ],
            "min": [
                -0.92388,
                -0.92388,
                -0.000315994
            ],
            "type": "VEC3"
        },
        "accessor_125": {
            "bufferView": "bufferView_134",
            "byteOffset": 10416,
            "byteStride": 12,
            "componentType": 5126,
            "count": 868,
            "max": [
                1,
                1,
                1
            ],
            "min": [
                -1,
                -1,
                -1
            ],
            "type": "VEC3"
        },
        "accessor_127": {
            "bufferView": "bufferView_134",
            "byteOffset": 20832,
            "byteStride": 8,
            "componentType": 5126,
            "count": 868,
            "max": [
                1,
                1
            ],
            "min": [
                0,
                0
            ],
            "type": "VEC2"
        },
        "accessor_129": {
            "bufferView": "bufferView_134",
            "byteOffset": 27776,
            "byteStride": 12,
            "componentType": 5126,
            "count": 868,
            "max": [
                1,
                1,
                1
            ],
            "min": [
                -1,
                -1,
                -1
            ],
            "type": "VEC3"
        },
        "accessor_131": {
            "bufferView": "bufferView_134",
            "byteOffset": 38192,
            "byteStride": 12,
            "componentType": 5126,
            "count": 868,
            "max": [
                1,
                1,
                0.885796
            ],
            "min": [
                -1,
                -1,
                -1
            ],
            "type": "VEC3"
        }
    },
    "animations": {},
    "asset": {
        "generator": "collada2gltf@11bf28f97f1b5380fbefacf862ce7c597873d368",
        "premultipliedAlpha": true,
        "profile": {
            "api": "WebGL",
            "version": "1.0.2"
        },
        "version": 1
    },
    "bufferViews": {
        "bufferView_133": {
            "buffer": "TaiYangSan",
            "byteLength": 2052,
            "byteOffset": 0,
            "target": 34963
        },
        "bufferView_134": {
            "buffer": "TaiYangSan",
            "byteLength": 48608,
            "byteOffset": 2052,
            "target": 34962
        }
    },
    "buffers": {
        "TaiYangSan": {
            "byteLength": 50660,
            "type": "arraybuffer",
            "uri": "data:application/octet-stream;base64,"
        }
    },
    "images": {
        "_7040501_png": {
            "name": "_7040501_png",
            "uri": "data:image/png;base64,"
        },
        "_7040502_png": {
            "name": "_7040502_png",
            "uri": "data:image/png;base64,"
        },
        "_7040503_png": {
            "name": "_7040503_png",
            "uri": "data:image/png;base64,"
        },
        "_7040504_png": {
            "name": "_7040504_png",
            "uri": "data:image/png;base64,"
        }
    },
    "materials": {
        "_7040501": {
            "name": "_7040501",
            "technique": "technique1",
            "values": {
                "ambient": "texture__7040501_png",
                "diffuse": "texture__7040501_png",
                "emission": [
                    0,
                    0,
                    0,
                    1
                ],
                "shininess": 0,
                "specular": [
                    0.9,
                    0.9,
                    0.9,
                    1
                ]
            }
        },
        "_7040502": {
            "name": "_7040502",
            "technique": "technique1",
            "values": {
                "ambient": "texture__7040502_png",
                "diffuse": "texture__7040502_png",
                "emission": [
                    0,
                    0,
                    0,
                    1
                ],
                "shininess": 0,
                "specular": [
                    0.9,
                    0.9,
                    0.9,
                    1
                ]
            }
        },
        "_7040503": {
            "name": "_7040503",
            "technique": "technique1",
            "values": {
                "ambient": "texture__7040503_png",
                "diffuse": "texture__7040503_png",
                "emission": [
                    0,
                    0,
                    0,
                    1
                ],
                "shininess": 0,
                "specular": [
                    0.9,
                    0.9,
                    0.9,
                    1
                ]
            }
        },
        "_7040504": {
            "name": "_7040504",
            "technique": "technique1",
            "values": {
                "ambient": "texture__7040504_png",
                "diffuse": "texture__7040504_png",
                "emission": [
                    0,
                    0,
                    0,
                    1
                ],
                "shininess": 0,
                "specular": [
                    0.9,
                    0.9,
                    0.9,
                    1
                ]
            }
        }
    },
    "meshes": {
        "geom-Cylinder001": {
            "name": "Cylinder001",
            "primitives": [
                {
                    "attributes": {
                        "NORMAL": "accessor_125",
                        "POSITION": "accessor_123",
                        "TEXBINORMAL": "accessor_131",
                        "TEXCOORD_0": "accessor_127",
                        "TEXTANGENT": "accessor_129"
                    },
                    "indices": "accessor_112",
                    "material": "_7040504",
                    "mode": 4
                },
                {
                    "attributes": {
                        "NORMAL": "accessor_125",
                        "POSITION": "accessor_123",
                        "TEXBINORMAL": "accessor_131",
                        "TEXCOORD_0": "accessor_127",
                        "TEXTANGENT": "accessor_129"
                    },
                    "indices": "accessor_115",
                    "material": "_7040502",
                    "mode": 4
                },
                {
                    "attributes": {
                        "NORMAL": "accessor_125",
                        "POSITION": "accessor_123",
                        "TEXBINORMAL": "accessor_131",
                        "TEXCOORD_0": "accessor_127",
                        "TEXTANGENT": "accessor_129"
                    },
                    "indices": "accessor_118",
                    "material": "_7040503",
                    "mode": 4
                },
                {
                    "attributes": {
                        "NORMAL": "accessor_125",
                        "POSITION": "accessor_123",
                        "TEXBINORMAL": "accessor_131",
                        "TEXCOORD_0": "accessor_127",
                        "TEXTANGENT": "accessor_129"
                    },
                    "indices": "accessor_121",
                    "material": "_7040501",
                    "mode": 4
                }
            ]
        }
    },
    "nodes": {
        "node-Cylinder001": {
            "children": [
                "node_2"
            ],
            "matrix": [
                1,
                0,
                0,
                0,
                0,
                1,
                0,
                0,
                0,
                0,
                1,
                0,
                0,
                0,
                0,
                1
            ],
            "name": "Cylinder001"
        },
        "node_0": {
            "children": [],
            "matrix": [
                1,
                0,
                0,
                0,
                0,
                1,
                0,
                0,
                0,
                0,
                1,
                0,
                0,
                0,
                0,
                1
            ],
            "name": "EnvironmentAmbientLight"
        },
        "node_2": {
            "children": [],
            "matrix": [
                1,
                0,
                0,
                0,
                0,
                1,
                0,
                0,
                0,
                0,
                1,
                0,
                0,
                -5.96046e-08,
                0,
                1
            ],
            "meshes": [
                "geom-Cylinder001"
            ],
            "name": ""
        },
        "node_3": {
            "children": [
                "node_0",
                "node-Cylinder001"
            ],
            "matrix": [
                1,
                0,
                0,
                0,
                0,
                0,
                -1,
                0,
                0,
                1,
                0,
                0,
                0,
                0,
                0,
                1
            ],
            "name": "Y_UP_Transform"
        }
    },
    "programs": {
        "program_0": {
            "attributes": [
                "a_normal",
                "a_position",
                "a_texcoord0"
            ],
            "fragmentShader": "TaiYangSan0FS",
            "vertexShader": "TaiYangSan0VS"
        }
    },
    "samplers": {
        "sampler_0": {
            "magFilter": 9729,
            "minFilter": 9729,
            "wrapS": 10497,
            "wrapT": 10497
        }
    },
    "scene": "defaultScene",
    "scenes": {
        "defaultScene": {
            "nodes": [
                "node_3"
            ]
        }
    },
    "shaders": {
        "TaiYangSan0FS": {
            "type": 35632,
            "uri": "data:text/plain;base64,"
        },
        "TaiYangSan0VS": {
            "type": 35633,
            "uri": "data:text/plain;base64,"
        }
    },
    "skins": {},
    "techniques": {
        "technique1": {
            "attributes": {
                "a_normal": "normal",
                "a_position": "position",
                "a_texcoord0": "texcoord0"
            },
            "parameters": {
                "ambient": {
                    "type": 35678
                },
                "diffuse": {
                    "type": 35678
                },
                "emission": {
                    "type": 35666
                },
                "modelViewMatrix": {
                    "semantic": "MODELVIEW",
                    "type": 35676
                },
                "normal": {
                    "semantic": "NORMAL",
                    "type": 35665
                },
                "normalMatrix": {
                    "semantic": "MODELVIEWINVERSETRANSPOSE",
                    "type": 35675
                },
                "position": {
                    "semantic": "POSITION",
                    "type": 35665
                },
                "projectionMatrix": {
                    "semantic": "PROJECTION",
                    "type": 35676
                },
                "shininess": {
                    "type": 5126
                },
                "specular": {
                    "type": 35666
                },
                "texcoord0": {
                    "semantic": "TEXCOORD_0",
                    "type": 35664
                }
            },
            "program": "program_0",
            "states": {
                "enable": [
                    2929,
                    2884
                ]
            },
            "uniforms": {
                "u_ambient": "ambient",
                "u_diffuse": "diffuse",
                "u_emission": "emission",
                "u_modelViewMatrix": "modelViewMatrix",
                "u_normalMatrix": "normalMatrix",
                "u_projectionMatrix": "projectionMatrix",
                "u_shininess": "shininess",
                "u_specular": "specular"
            }
        }
    },
    "textures": {
        "texture__7040501_png": {
            "format": 6408,
            "internalFormat": 6408,
            "sampler": "sampler_0",
            "source": "_7040501_png",
            "target": 3553,
            "type": 5121
        },
        "texture__7040502_png": {
            "format": 6408,
            "internalFormat": 6408,
            "sampler": "sampler_0",
            "source": "_7040502_png",
            "target": 3553,
            "type": 5121
        },
        "texture__7040503_png": {
            "format": 6408,
            "internalFormat": 6408,
            "sampler": "sampler_0",
            "source": "_7040503_png",
            "target": 3553,
            "type": 5121
        },
        "texture__7040504_png": {
            "format": 6408,
            "internalFormat": 6408,
            "sampler": "sampler_0",
            "source": "_7040504_png",
            "target": 3553,
            "type": 5121
        }
    }
}